<?xml version="1.0" ?><svg xmlns="http://www.w3.org/2000/svg" xmlns:xlink="http://www.w3.org/1999/xlink" version="1.1" viewBox="0 0 64 64" style="enable-background:new 0 0 64 64;" xml:space="preserve"><g id="Grid"/><g id="Object"><g><path d="M58.12,28.12h-1.39C55.05,17.49,46.51,8.95,35.88,7.28V5.88C35.88,3.74,34.14,2,32,2c-2.14,0-3.88,1.74-3.88,3.88v1.4    c-4.29,0.67-8.3,2.45-11.71,5.18l-0.62-0.62l0.08-1.71c0.02-0.41-0.14-0.82-0.43-1.11L9.95,3.55C9.54,3.13,8.93,3,8.38,3.21    c-0.54,0.21-0.91,0.72-0.94,1.3L7.3,7.62L4.21,7.76C3.63,7.79,3.11,8.15,2.9,8.7c-0.21,0.54-0.08,1.16,0.33,1.57l5.48,5.48    c0.29,0.29,0.69,0.45,1.11,0.43l2.32-0.1l0.31,0.31c-2.72,3.4-4.49,7.43-5.16,11.73H5.88C3.74,28.12,2,29.86,2,32    s1.74,3.88,3.88,3.88h1.39c1.67,10.62,10.22,19.17,20.84,20.84v1.39c0,2.14,1.74,3.88,3.88,3.88c2.14,0,3.88-1.74,3.88-3.88v-1.39    c10.63-1.67,19.17-10.22,20.84-20.84h1.39c2.14,0,3.88-1.74,3.88-3.88S60.26,28.12,58.12,28.12z M58.12,33.62h-3.39l-0.11,1    c-1.2,10.39-9.6,18.79-19.99,19.99l-1,0.12v3.39c0,0.89-0.73,1.62-1.62,1.62c-0.89,0-1.62-0.73-1.62-1.62v-3.39l-1-0.12    c-10.39-1.2-18.79-9.6-19.99-19.99l-0.12-1H5.88c-0.89,0-1.62-0.73-1.62-1.62c0-0.89,0.73-1.62,1.62-1.62h3.4l0.12-1    c0.45-3.9,1.89-7.6,4.19-10.75l2.32,2.32c-1.67,2.43-2.77,5.22-3.21,8.13l-0.2,1.3h7.81l0.2-0.89c0.22-1.01,0.57-1.98,1.05-2.9    l2.44,2.44c-0.35,0.94-0.53,1.93-0.53,2.96c0,4.7,3.82,8.53,8.53,8.53c4.7,0,8.53-3.83,8.53-8.53S36.7,23.47,32,23.47    c-1.57,0-3.13,0.46-4.51,1.33l-1.2,0.76l3.57,3.57l0.71-0.32c0.46-0.21,0.94-0.31,1.43-0.31c1.93,0,3.51,1.57,3.51,3.51    s-1.57,3.51-3.51,3.51s-3.51-1.57-3.51-3.51c0-0.49,0.11-0.97,0.31-1.43l0.32-0.71L13.04,13.77l-2.97,0.13L6.11,9.94l2.01-0.09    c0.76-0.03,1.37-0.64,1.4-1.4l0.1-2.04l3.97,3.97l-0.11,2.36l2.81,2.81l0.8-0.7c3.49-3.04,7.74-4.93,12.3-5.46l1-0.12v-3.4    c0-0.89,0.73-1.62,1.62-1.62c0.89,0,1.62,0.73,1.62,1.62v3.39l1,0.12c10.39,1.2,18.8,9.6,19.99,19.99l0.11,1h3.39    c0.89,0,1.62,0.73,1.62,1.62C59.74,32.89,59.01,33.62,58.12,33.62z M17.99,21.93l2.33,2.33c-0.8,1.2-1.4,2.49-1.79,3.86h-3.34    C15.7,25.89,16.66,23.78,17.99,21.93z M32,37.77c3.18,0,5.77-2.59,5.77-5.77s-2.59-5.77-5.77-5.77c-0.54,0-1.08,0.08-1.6,0.23    l-0.38-0.38c0.64-0.23,1.31-0.34,1.99-0.34c3.45,0,6.26,2.81,6.26,6.26s-2.81,6.26-6.26,6.26s-6.26-2.81-6.26-6.26    c0-0.7,0.11-1.36,0.33-2l0.39,0.39c-0.15,0.52-0.23,1.06-0.23,1.61C26.23,35.18,28.82,37.77,32,37.77z"/><path d="M43.49,34.51c-0.98,4.48-4.5,8-8.98,8.98l-0.89,0.19v7.8l1.3-0.2c8.37-1.26,15.11-7.99,16.37-16.37l0.2-1.3h-7.8    L43.49,34.51z M48.8,35.88c-1.48,6.36-6.56,11.44-12.92,12.92v-3.33c4.62-1.33,8.26-4.97,9.59-9.59H48.8z"/><path d="M19.5,17.03l-0.95,0.79l5.49,5.49l0.79-0.61c1.39-1.07,2.96-1.81,4.66-2.18l0.89-0.2v-7.81l-1.3,0.2    C25.56,13.24,22.25,14.73,19.5,17.03z M28.12,18.53c-1.37,0.4-2.66,1-3.86,1.79L21.94,18c1.86-1.34,3.96-2.29,6.18-2.81V18.53z"/><path d="M34.92,12.71l-1.3-0.2v7.8l0.89,0.19c4.48,0.98,8,4.5,8.98,8.98l0.19,0.89h7.8l-0.2-1.3    C50.02,20.71,43.29,13.98,34.92,12.71z M45.47,28.12c-1.33-4.62-4.97-8.26-9.59-9.59V15.2c6.36,1.48,11.44,6.56,12.92,12.92H45.47    z"/><path d="M20.51,34.51l-0.19-0.89h-7.8l0.2,1.3c1.26,8.37,8,15.1,16.37,16.37l1.3,0.2v-7.8l-0.89-0.19    C25.02,42.51,21.49,38.98,20.51,34.51z M28.12,48.8c-6.36-1.48-11.44-6.56-12.92-12.92h3.33c1.33,4.62,4.97,8.26,9.59,9.59V48.8z"/></g></g></svg>